<mxfile host="app.diagrams.net" modified="2021-08-10T18:53:18.656Z" agent="5.0 (Macintosh)" etag="prGUtsVc9h6szwv1nQ0H" version="14.9.3" type="github">
  <diagram id="WFATCNAS0iAnTa2yJcev" name="Page-1">
    <mxGraphModel dx="561" dy="1205" grid="1" gridSize="10" guides="1" tooltips="1" connect="1" arrows="1" fold="1" page="1" pageScale="1" pageWidth="850" pageHeight="1100" math="0" shadow="0">
      <root>
        <mxCell id="0" />
        <mxCell id="1" parent="0" />
        <mxCell id="aMHmT6fL4BXiZEAyDJnp-14" style="edgeStyle=orthogonalEdgeStyle;curved=1;rounded=0;orthogonalLoop=1;jettySize=auto;html=1;fontFamily=Courier New;" edge="1" parent="1" source="aMHmT6fL4BXiZEAyDJnp-1" target="aMHmT6fL4BXiZEAyDJnp-2">
          <mxGeometry relative="1" as="geometry">
            <Array as="points">
              <mxPoint x="340" y="440" />
              <mxPoint x="340" y="440" />
            </Array>
          </mxGeometry>
        </mxCell>
        <mxCell id="aMHmT6fL4BXiZEAyDJnp-15" value="&lt;div&gt;&lt;br&gt;&lt;div&gt;&lt;b&gt;&amp;lt;&lt;i&gt;has enough credit&lt;/i&gt;&amp;gt;&lt;br&gt;&lt;/b&gt;&lt;/div&gt;&lt;div&gt;&lt;b&gt;&amp;lt;has stock&amp;gt;&lt;/b&gt;&lt;br&gt;&lt;/div&gt;&lt;/div&gt;&lt;div&gt;&lt;b&gt;&lt;br&gt;&lt;/b&gt;&lt;/div&gt;&lt;div&gt;&lt;b&gt;selectProduct()&lt;/b&gt;&lt;/div&gt;" style="edgeLabel;html=1;align=center;verticalAlign=middle;resizable=0;points=[];fontFamily=Courier New;" vertex="1" connectable="0" parent="aMHmT6fL4BXiZEAyDJnp-14">
          <mxGeometry x="-0.1667" y="-2" relative="1" as="geometry">
            <mxPoint x="72" y="10" as="offset" />
          </mxGeometry>
        </mxCell>
        <mxCell id="aMHmT6fL4BXiZEAyDJnp-19" style="edgeStyle=orthogonalEdgeStyle;curved=1;rounded=0;orthogonalLoop=1;jettySize=auto;html=1;entryX=1;entryY=0.5;entryDx=0;entryDy=0;fontFamily=Courier New;exitX=0;exitY=1;exitDx=0;exitDy=0;" edge="1" parent="1" source="aMHmT6fL4BXiZEAyDJnp-1" target="aMHmT6fL4BXiZEAyDJnp-16">
          <mxGeometry relative="1" as="geometry" />
        </mxCell>
        <mxCell id="aMHmT6fL4BXiZEAyDJnp-20" value="&lt;b&gt;abort()&lt;/b&gt;" style="edgeLabel;html=1;align=center;verticalAlign=middle;resizable=0;points=[];fontFamily=Courier New;" vertex="1" connectable="0" parent="aMHmT6fL4BXiZEAyDJnp-19">
          <mxGeometry x="-0.1649" y="2" relative="1" as="geometry">
            <mxPoint y="17" as="offset" />
          </mxGeometry>
        </mxCell>
        <mxCell id="aMHmT6fL4BXiZEAyDJnp-1" value="READY" style="ellipse;whiteSpace=wrap;html=1;fontFamily=Courier New;fontStyle=1;fillColor=#e1d5e7;strokeColor=#9673a6;" vertex="1" parent="1">
          <mxGeometry x="280" y="300" width="120" height="80" as="geometry" />
        </mxCell>
        <mxCell id="aMHmT6fL4BXiZEAyDJnp-17" style="edgeStyle=orthogonalEdgeStyle;curved=1;rounded=0;orthogonalLoop=1;jettySize=auto;html=1;fontFamily=Courier New;" edge="1" parent="1" source="aMHmT6fL4BXiZEAyDJnp-2" target="aMHmT6fL4BXiZEAyDJnp-16">
          <mxGeometry relative="1" as="geometry" />
        </mxCell>
        <mxCell id="aMHmT6fL4BXiZEAyDJnp-2" value="DISPENSE" style="ellipse;whiteSpace=wrap;html=1;fontFamily=Courier New;fontStyle=1;fillColor=#f8cecc;strokeColor=#b85450;" vertex="1" parent="1">
          <mxGeometry x="280" y="500" width="120" height="80" as="geometry" />
        </mxCell>
        <mxCell id="aMHmT6fL4BXiZEAyDJnp-4" style="edgeStyle=orthogonalEdgeStyle;rounded=0;orthogonalLoop=1;jettySize=auto;html=1;fontFamily=Courier New;curved=1;elbow=vertical;" edge="1" parent="1" source="aMHmT6fL4BXiZEAyDJnp-1" target="aMHmT6fL4BXiZEAyDJnp-1">
          <mxGeometry relative="1" as="geometry" />
        </mxCell>
        <mxCell id="aMHmT6fL4BXiZEAyDJnp-5" value="insertCoin()" style="edgeLabel;html=1;align=center;verticalAlign=middle;resizable=0;points=[];fontFamily=Courier New;fontStyle=1" vertex="1" connectable="0" parent="aMHmT6fL4BXiZEAyDJnp-4">
          <mxGeometry x="0.4701" y="1" relative="1" as="geometry">
            <mxPoint x="55" y="-11" as="offset" />
          </mxGeometry>
        </mxCell>
        <mxCell id="aMHmT6fL4BXiZEAyDJnp-18" style="edgeStyle=orthogonalEdgeStyle;curved=1;rounded=0;orthogonalLoop=1;jettySize=auto;html=1;entryX=0;entryY=0.5;entryDx=0;entryDy=0;fontFamily=Courier New;" edge="1" parent="1" source="aMHmT6fL4BXiZEAyDJnp-16" target="aMHmT6fL4BXiZEAyDJnp-1">
          <mxGeometry relative="1" as="geometry">
            <Array as="points">
              <mxPoint x="150" y="340" />
            </Array>
          </mxGeometry>
        </mxCell>
        <mxCell id="aMHmT6fL4BXiZEAyDJnp-16" value="COIN_CHANGE" style="ellipse;whiteSpace=wrap;html=1;fontFamily=Courier New;fontStyle=1;fillColor=#fff2cc;strokeColor=#d6b656;" vertex="1" parent="1">
          <mxGeometry x="90" y="400" width="120" height="80" as="geometry" />
        </mxCell>
        <mxCell id="aMHmT6fL4BXiZEAyDJnp-23" style="edgeStyle=orthogonalEdgeStyle;curved=1;rounded=0;orthogonalLoop=1;jettySize=auto;html=1;exitX=0.5;exitY=0;exitDx=0;exitDy=0;fontFamily=Courier New;" edge="1" parent="1" source="aMHmT6fL4BXiZEAyDJnp-1" target="aMHmT6fL4BXiZEAyDJnp-1">
          <mxGeometry relative="1" as="geometry">
            <Array as="points">
              <mxPoint x="340" y="280" />
              <mxPoint x="360" y="280" />
            </Array>
          </mxGeometry>
        </mxCell>
        <mxCell id="aMHmT6fL4BXiZEAyDJnp-24" value="&lt;b&gt;displayInfo()&lt;/b&gt;" style="edgeLabel;html=1;align=center;verticalAlign=middle;resizable=0;points=[];fontFamily=Courier New;" vertex="1" connectable="0" parent="aMHmT6fL4BXiZEAyDJnp-23">
          <mxGeometry x="0.0596" y="1" relative="1" as="geometry">
            <mxPoint x="-3" y="-19" as="offset" />
          </mxGeometry>
        </mxCell>
      </root>
    </mxGraphModel>
  </diagram>
</mxfile>
